<?xml version="1.0" encoding="UTF-8" standalone="no"?>
<svg width="182px" height="97px" viewBox="0 0 182 97" version="1.1" xmlns="http://www.w3.org/2000/svg" xmlns:xlink="http://www.w3.org/1999/xlink">
    <!-- Generator: Sketch 3.8.3 (29802) - http://www.bohemiancoding.com/sketch -->
    <title>Group 8</title>
    <desc>Created with Sketch.</desc>
    <defs></defs>
    <g id="Page-1" stroke="none" stroke-width="1" fill="none" fill-rule="evenodd">
        <g id="3---Deployment" transform="translate(-1199.000000, -571.000000)">
            <g id="Group-8" transform="translate(1196.000000, 573.000000)">
                <rect id="Rectangle-1117-Copy-4" fill-opacity="0.2" fill="#008571" x="11" y="0" width="172" height="33"></rect>
                <text id="Commit-ID-Copy-4" font-family="HelvNeueBoldforIBM, HelvNeue Bold for IBM" font-size="10" font-weight="bold" fill="#41D6C3">
                    <tspan x="19" y="20">Commit ID</tspan>
                </text>
                <text id="ad3rjh-copy-4" font-family="HelvNeueBoldforIBM, HelvNeue Bold for IBM" font-size="10" font-weight="bold" fill="#FFFFFF">
                    <tspan x="22" y="76">ad3rjh</tspan>
                </text>
                <path d="M10.5502106,70.9027416 C10.511441,70.9177127 4.25556889,80.5567303 4.25556889,80.5567303 L8.76717991,80.5567303 L8.76717991,88.1048113 L12.2019305,88.1048113 L12.2019305,80.5095988 L16.7444311,80.4769304 L10.5929056,70.8996776 C10.5929056,70.8996776 10.5889802,70.8877705 10.5502106,70.9027416 Z" id="Path-4961-Copy-5" fill="#FFFFFF" transform="translate(10.500000, 79.500000) rotate(45.000000) translate(-10.500000, -79.500000) "></path>
                <polyline id="Path-4984-Copy-4" stroke="#008571" stroke-width="4" points="17 0 182.390241 0 182.390241 94.5557536"></polyline>
                <path d="M18,33 L182.027435,33" id="Path-4985-Copy-20" stroke="#008571" stroke-width="4"></path>
                <path d="M104.571747,17 L161.995026,17" id="Path-4985-Copy-21" stroke="#41D6C3" stroke-width="4"></path>
                <path d="M104.571747,54 L161.995026,54" id="Path-4985-Copy-22" stroke="#41D6C3" stroke-width="4"></path>
                <path d="M18.5717468,54 L65,54" id="Path-4985-Copy-23" stroke="#41D6C3" stroke-width="4"></path>
                <path d="M104.571747,74 L161.995026,74" id="Path-4985-Copy-24" stroke="#41D6C3" stroke-width="4"></path>
            </g>
        </g>
    </g>
</svg>