<?xml version="1.0" encoding="UTF-8" standalone="no"?>
<svg width="172px" height="68px" viewBox="0 0 172 68" version="1.1" xmlns="http://www.w3.org/2000/svg" xmlns:xlink="http://www.w3.org/1999/xlink">
    <!-- Generator: Sketch 3.8.3 (29802) - http://www.bohemiancoding.com/sketch -->
    <title>Group 8</title>
    <desc>Created with Sketch.</desc>
    <defs></defs>
    <g id="Page-1" stroke="none" stroke-width="1" fill="none" fill-rule="evenodd">
        <g id="1---Pinpoint" transform="translate(-1202.000000, -656.000000)">
            <g id="Group-8" transform="translate(1202.000000, 658.000000)">
                <rect id="Rectangle-1117-Copy-6" fill-opacity="0.2" fill="#008571" x="0" y="0" width="172" height="33"></rect>
                <text id="Breakdown-Copy" font-family="HelvNeueBoldforIBM, HelvNeue Bold for IBM" font-size="10" font-weight="bold" fill="#DFE6EB">
                    <tspan x="94" y="56">Breakdown</tspan>
                </text>
                <path d="M82.5502106,49.9027416 C82.511441,49.9177127 76.2555689,59.5567303 76.2555689,59.5567303 L80.7671799,59.5567303 L80.7671799,67.1048113 L84.2019305,67.1048113 L84.2019305,59.5095988 L88.7444311,59.4769304 L82.5929056,49.8996776 C82.5929056,49.8996776 82.5889802,49.8877705 82.5502106,49.9027416 Z" id="Path-4961-Copy-7" fill="#FFFFFF" transform="translate(82.500000, 58.500000) rotate(45.000000) translate(-82.500000, -58.500000) "></path>
                <polyline id="Path-4984-Copy-6" stroke="#008571" stroke-width="4" points="6 0 170 0 170 65"></polyline>
                <path d="M7,33 L171.027435,33" id="Path-4985-Copy-27" stroke="#008571" stroke-width="4"></path>
                <path d="M93.5717468,17 L150.995026,17" id="Path-4985-Copy-35" stroke="#41D6C3" stroke-width="4"></path>
                <path d="M7.57174683,17 L54,17" id="Path-4985-Copy-36" stroke="#41D6C3" stroke-width="4"></path>
                <path d="M7.57174683,53 L64.9950256,53" id="Path-4985-Copy-39" stroke="#41D6C3" stroke-width="4"></path>
            </g>
        </g>
    </g>
</svg>